<svg width="1269.12" height="578.035" viewBox="0 0 951.84 433.526" version="1.1" id="prefix__svg183" xmlns:xlink="http://www.w3.org/1999/xlink" xmlns="http://www.w3.org/2000/svg"><style id="style1">g#prefix__line{fill:#404040;stroke:#404040}g#prefix__arrow{fill:gray}g#prefix__arrow,g#prefix__circle{stroke:#202020}@media (prefers-color-scheme:dark){g#prefix__line{stroke:#bfbfbf;fill:#bfbfbf}g#prefix__arrow{fill:gray}g#prefix__arrow,g#prefix__circle{stroke:#dfdfdf}}*{stroke-linejoin:round;stroke-linecap:butt}</style><defs id="prefix__defs1"><style type="text/css" id="style1">*{stroke-linejoin:round;stroke-linecap:butt}</style></defs><g id="prefix__figure_1"><g id="prefix__axes_1"><g id="prefix__line"><path d="M85.04 177.48l73.157-19.382" clip-path="url(#prefix__p42871ecb75)" id="prefix__path2" fill="none" stroke-width="8.1"/></g><g id="prefix__line"><path d="M82.595 172.673l78.046-62.034" clip-path="url(#prefix__p42871ecb75)" id="prefix__path3" fill="none" stroke-width="8.1"/></g><g id="prefix__line"><path d="M80.21 170.377l82.816-109.708" clip-path="url(#prefix__p42871ecb75)" id="prefix__path4" fill="none" stroke-width="8.1"/></g><g id="prefix__line"><path d="M85.04 131.965l73.157 19.382" clip-path="url(#prefix__p42871ecb75)" id="prefix__path5" fill="none" stroke-width="8.1"/></g><g id="prefix__line"><path d="M85.04 125.214l73.157-19.383" clip-path="url(#prefix__p42871ecb75)" id="prefix__path6" fill="none" stroke-width="8.1"/></g><g id="prefix__line"><path d="M82.595 120.406l78.046-62.034" clip-path="url(#prefix__p42871ecb75)" id="prefix__path7" fill="none" stroke-width="8.1"/></g><g id="prefix__line"><path d="M82.595 84.506l78.046 62.034" clip-path="url(#prefix__p42871ecb75)" id="prefix__path8" fill="none" stroke-width="8.1"/></g><g id="prefix__line"><path d="M85.04 79.698l73.157 19.383" clip-path="url(#prefix__p42871ecb75)" id="prefix__path9" fill="none" stroke-width="8.1"/></g><g id="prefix__line"><path d="M85.04 72.947l73.157-19.382" clip-path="url(#prefix__p42871ecb75)" id="prefix__path10" fill="none" stroke-width="8.1"/></g><g id="prefix__line"><path d="M80.21 34.535l82.816 109.708" clip-path="url(#prefix__p42871ecb75)" id="prefix__path11" fill="none" stroke-width="8.1"/></g><g id="prefix__line"><path d="M82.595 32.24l78.046 62.033" clip-path="url(#prefix__p42871ecb75)" id="prefix__path12" fill="none" stroke-width="8.1"/></g><g id="prefix__line"><path d="M85.04 27.431l73.157 19.383" clip-path="url(#prefix__p42871ecb75)" id="prefix__path13" fill="none" stroke-width="8.1"/></g><g id="prefix__line"><path d="M184.12 154.723h72.268" clip-path="url(#prefix__p42871ecb75)" id="prefix__path14" fill="none" stroke-width="8.1"/></g><g id="prefix__line"><path d="M182.57 148.558l75.37-39.938" clip-path="url(#prefix__p42871ecb75)" id="prefix__path15" fill="none" stroke-width="8.1"/></g><g id="prefix__line"><path d="M179.954 145.166l80.601-85.42" clip-path="url(#prefix__p42871ecb75)" id="prefix__path16" fill="none" stroke-width="8.1"/></g><g id="prefix__line"><path d="M182.57 108.62l75.37 39.938" clip-path="url(#prefix__p42871ecb75)" id="prefix__path17" fill="none" stroke-width="8.1"/></g><g id="prefix__line"><path d="M184.12 102.456h72.268" clip-path="url(#prefix__p42871ecb75)" id="prefix__path18" fill="none" stroke-width="8.1"/></g><g id="prefix__line"><path d="M182.57 96.292l75.37-39.938" clip-path="url(#prefix__p42871ecb75)" id="prefix__path19" fill="none" stroke-width="8.1"/></g><g id="prefix__line"><path d="M179.954 59.746l80.601 85.42" clip-path="url(#prefix__p42871ecb75)" id="prefix__path20" fill="none" stroke-width="8.1"/></g><g id="prefix__line"><path d="M182.57 56.354l75.37 39.938" clip-path="url(#prefix__p42871ecb75)" id="prefix__path21" fill="none" stroke-width="8.1"/></g><g id="prefix__line"><path d="M184.12 50.19h72.268" clip-path="url(#prefix__p42871ecb75)" id="prefix__path22" fill="none" stroke-width="8.1"/></g><g id="prefix__line"><path d="M282.312 151.347l73.158-19.382" clip-path="url(#prefix__p42871ecb75)" id="prefix__path23" fill="none" stroke-width="8.1"/></g><g id="prefix__line"><path d="M279.868 146.54l78.046-62.034" clip-path="url(#prefix__p42871ecb75)" id="prefix__path24" fill="none" stroke-width="8.1"/></g><g id="prefix__line"><path d="M282.312 105.831l73.158 19.383" clip-path="url(#prefix__p42871ecb75)" id="prefix__path25" fill="none" stroke-width="8.1"/></g><g id="prefix__line"><path d="M282.312 99.08l73.158-19.382" clip-path="url(#prefix__p42871ecb75)" id="prefix__path26" fill="none" stroke-width="8.1"/></g><g id="prefix__line"><path d="M279.868 58.372l78.046 62.034" clip-path="url(#prefix__p42871ecb75)" id="prefix__path27" fill="none" stroke-width="8.1"/></g><g id="prefix__line"><path d="M282.312 53.565l73.158 19.382" clip-path="url(#prefix__p42871ecb75)" id="prefix__path28" fill="none" stroke-width="8.1"/></g><g id="prefix__circle"><path d="M72.3 191.81a10.955 10.955 0 100-21.91 10.955 10.955 0 000 21.91z" clip-path="url(#prefix__p42871ecb75)" id="prefix__path29" fill="none" stroke-width="8.1"/></g><g id="prefix__circle"><path d="M72.3 139.544a10.955 10.955 0 100-21.91 10.955 10.955 0 000 21.91z" clip-path="url(#prefix__p42871ecb75)" id="prefix__path30" fill="none" stroke-width="8.1"/></g><g id="prefix__circle"><path d="M72.3 87.277a10.955 10.955 0 100-21.91 10.955 10.955 0 000 21.91z" clip-path="url(#prefix__p42871ecb75)" id="prefix__path31" fill="none" stroke-width="8.1"/></g><g id="prefix__circle"><path d="M72.3 35.01a10.955 10.955 0 100-21.91 10.955 10.955 0 000 21.91z" clip-path="url(#prefix__p42871ecb75)" id="prefix__path32" fill="none" stroke-width="8.1"/></g><g id="prefix__circle"><path d="M170.936 165.677a10.955 10.955 0 100-21.91 10.955 10.955 0 000 21.91z" clip-path="url(#prefix__p42871ecb75)" id="prefix__path33" fill="none" stroke-width="8.1"/></g><g id="prefix__circle"><path d="M170.936 113.41a10.955 10.955 0 100-21.91 10.955 10.955 0 000 21.91z" clip-path="url(#prefix__p42871ecb75)" id="prefix__path34" fill="none" stroke-width="8.1"/></g><g id="prefix__circle"><path d="M170.936 61.144a10.955 10.955 0 100-21.91 10.955 10.955 0 000 21.91z" clip-path="url(#prefix__p42871ecb75)" id="prefix__path35" fill="none" stroke-width="8.1"/></g><g id="prefix__circle"><path d="M269.573 165.677a10.955 10.955 0 100-21.91 10.955 10.955 0 000 21.91z" clip-path="url(#prefix__p42871ecb75)" id="prefix__path36" fill="none" stroke-width="8.1"/></g><g id="prefix__circle"><path d="M269.573 113.41a10.955 10.955 0 100-21.91 10.955 10.955 0 000 21.91z" clip-path="url(#prefix__p42871ecb75)" id="prefix__path37" fill="none" stroke-width="8.1"/></g><g id="prefix__circle"><path d="M269.573 61.144a10.955 10.955 0 100-21.91 10.955 10.955 0 000 21.91z" clip-path="url(#prefix__p42871ecb75)" id="prefix__path38" fill="none" stroke-width="8.1"/></g><g id="prefix__circle"><path d="M368.21 139.544a10.955 10.955 0 10-.001-21.91 10.955 10.955 0 000 21.91z" clip-path="url(#prefix__p42871ecb75)" id="prefix__path39" fill="none" stroke-width="8.1"/></g><g id="prefix__circle"><path d="M368.21 87.277a10.955 10.955 0 10-.001-21.91 10.955 10.955 0 000 21.91z" clip-path="url(#prefix__p42871ecb75)" id="prefix__path40" fill="none" stroke-width="8.1"/></g></g><g id="prefix__axes_2"><g id="prefix__line"><path d="M595.226 177.784l75.446-19.99" clip-path="url(#prefix__p56dcf01d59)" id="prefix__path41" fill="none" stroke-width="4.5"/></g><g id="prefix__line"><path d="M593.002 173.408l79.894-63.504" clip-path="url(#prefix__p56dcf01d59)" id="prefix__path42" fill="none" stroke-width="4.5"/></g><g id="prefix__line"><path d="M590.831 171.317l84.236-111.589" clip-path="url(#prefix__p56dcf01d59)" id="prefix__path43" fill="none" stroke-width="4.5"/></g><g id="prefix__line"><path d="M595.226 131.662l75.446 19.988" clip-path="url(#prefix__p56dcf01d59)" id="prefix__path44" fill="none" stroke-width="4.5"/></g><g id="prefix__line"><path d="M595.226 125.517l75.446-19.989" clip-path="url(#prefix__p56dcf01d59)" id="prefix__path45" fill="none" stroke-width="4.5"/></g><g id="prefix__line"><path d="M593.002 121.14l79.894-63.502" clip-path="url(#prefix__p56dcf01d59)" id="prefix__path46" fill="none" stroke-width="4.5"/></g><g id="prefix__line"><path d="M593.002 83.771l79.894 63.503" clip-path="url(#prefix__p56dcf01d59)" id="prefix__path47" fill="none" stroke-width="4.5"/></g><g id="prefix__line"><path d="M595.226 79.395l75.446 19.989" clip-path="url(#prefix__p56dcf01d59)" id="prefix__path48" fill="none" stroke-width="4.5"/></g><g id="prefix__line"><path d="M595.226 73.25l75.446-19.988" clip-path="url(#prefix__p56dcf01d59)" id="prefix__path49" fill="none" stroke-width="4.5"/></g><g id="prefix__line"><path d="M590.831 33.595l84.236 111.589" clip-path="url(#prefix__p56dcf01d59)" id="prefix__path50" fill="none" stroke-width="4.5"/></g><g id="prefix__line"><path d="M593.002 31.504l79.894 63.504" clip-path="url(#prefix__p56dcf01d59)" id="prefix__path51" fill="none" stroke-width="4.5"/></g><g id="prefix__line"><path d="M595.226 27.128l75.446 19.99" clip-path="url(#prefix__p56dcf01d59)" id="prefix__path52" fill="none" stroke-width="4.5"/></g><g id="prefix__line"><path d="M694.761 154.723h73.649" clip-path="url(#prefix__p56dcf01d59)" id="prefix__path53" fill="none" stroke-width="6"/></g><g id="prefix__line"><path d="M693.291 148.881l76.589-40.583" clip-path="url(#prefix__p56dcf01d59)" id="prefix__path54" fill="none" stroke-width="6"/></g><g id="prefix__line"><path d="M690.812 145.667l81.547-86.422" clip-path="url(#prefix__p56dcf01d59)" id="prefix__path55" fill="none" stroke-width="6"/></g><g id="prefix__line"><path d="M693.291 108.298l76.589 40.583" clip-path="url(#prefix__p56dcf01d59)" id="prefix__path56" fill="none" stroke-width="6"/></g><g id="prefix__line"><path d="M694.761 102.456h73.649" clip-path="url(#prefix__p56dcf01d59)" id="prefix__path57" fill="none" stroke-width="6"/></g><g id="prefix__line"><path d="M693.291 96.614l76.589-40.583" clip-path="url(#prefix__p56dcf01d59)" id="prefix__path58" fill="none" stroke-width="6"/></g><g id="prefix__line"><path d="M690.812 59.245l81.547 86.422" clip-path="url(#prefix__p56dcf01d59)" id="prefix__path59" fill="none" stroke-width="6"/></g><g id="prefix__line"><path d="M693.291 56.03l76.589 40.584" clip-path="url(#prefix__p56dcf01d59)" id="prefix__path60" fill="none" stroke-width="6"/></g><g id="prefix__line"><path d="M694.761 50.19h73.649" clip-path="url(#prefix__p56dcf01d59)" id="prefix__path61" fill="none" stroke-width="6"/></g><g id="prefix__line"><path d="M792.5 151.65l75.444-19.988" clip-path="url(#prefix__p56dcf01d59)" id="prefix__path62" fill="none" stroke-width="4.5"/></g><g id="prefix__line"><path d="M790.275 147.274l79.894-63.503" clip-path="url(#prefix__p56dcf01d59)" id="prefix__path63" fill="none" stroke-width="4.5"/></g><g id="prefix__line"><path d="M792.5 105.528l75.444 19.99" clip-path="url(#prefix__p56dcf01d59)" id="prefix__path64" fill="none" stroke-width="4.5"/></g><g id="prefix__line"><path d="M792.5 99.384l75.444-19.99" clip-path="url(#prefix__p56dcf01d59)" id="prefix__path65" fill="none" stroke-width="4.5"/></g><g id="prefix__line"><path d="M790.275 57.638l79.894 63.503" clip-path="url(#prefix__p56dcf01d59)" id="prefix__path66" fill="none" stroke-width="4.5"/></g><g id="prefix__line"><path d="M792.5 53.262l75.444 19.988" clip-path="url(#prefix__p56dcf01d59)" id="prefix__path67" fill="none" stroke-width="4.5"/></g><g id="prefix__circle"><path d="M583.63 191.81a10.955 10.955 0 100-21.91 10.955 10.955 0 000 21.91z" clip-path="url(#prefix__p56dcf01d59)" id="prefix__path68" fill="none" stroke-width="4.5"/></g><g id="prefix__circle"><path d="M583.63 139.544a10.955 10.955 0 100-21.91 10.955 10.955 0 000 21.91z" clip-path="url(#prefix__p56dcf01d59)" id="prefix__path69" fill="none" stroke-width="4.5"/></g><g id="prefix__circle"><path d="M583.63 87.277a10.955 10.955 0 100-21.91 10.955 10.955 0 000 21.91z" clip-path="url(#prefix__p56dcf01d59)" id="prefix__path70" fill="none" stroke-width="4.5"/></g><g id="prefix__circle"><path d="M583.63 35.01a10.955 10.955 0 100-21.91 10.955 10.955 0 000 21.91z" clip-path="url(#prefix__p56dcf01d59)" id="prefix__path71" fill="none" stroke-width="4.5"/></g><g id="prefix__circle"><path d="M682.267 165.677a10.955 10.955 0 100-21.91 10.955 10.955 0 000 21.91z" clip-path="url(#prefix__p56dcf01d59)" id="prefix__path72" fill="none" stroke-width="7.5"/></g><g id="prefix__circle"><path d="M682.267 113.41a10.955 10.955 0 100-21.91 10.955 10.955 0 000 21.91z" clip-path="url(#prefix__p56dcf01d59)" id="prefix__path73" fill="none" stroke-width="7.5"/></g><g id="prefix__circle"><path d="M682.267 61.144a10.955 10.955 0 100-21.91 10.955 10.955 0 000 21.91z" clip-path="url(#prefix__p56dcf01d59)" id="prefix__path74" fill="none" stroke-width="7.5"/></g><g id="prefix__circle"><path d="M780.904 165.677a10.955 10.955 0 100-21.91 10.955 10.955 0 000 21.91z" clip-path="url(#prefix__p56dcf01d59)" id="prefix__path75" fill="none" stroke-width="6"/></g><g id="prefix__circle"><path d="M780.904 113.41a10.955 10.955 0 100-21.91 10.955 10.955 0 000 21.91z" clip-path="url(#prefix__p56dcf01d59)" id="prefix__path76" fill="none" stroke-width="6"/></g><g id="prefix__circle"><path d="M780.904 61.144a10.955 10.955 0 100-21.91 10.955 10.955 0 000 21.91z" clip-path="url(#prefix__p56dcf01d59)" id="prefix__path77" fill="none" stroke-width="6"/></g><g id="prefix__circle"><path d="M879.54 139.544a10.955 10.955 0 100-21.91 10.955 10.955 0 000 21.91z" clip-path="url(#prefix__p56dcf01d59)" id="prefix__path78" fill="none" stroke-width="4.5"/></g><g id="prefix__circle"><path d="M879.54 87.277a10.955 10.955 0 100-21.91 10.955 10.955 0 000 21.91z" clip-path="url(#prefix__p56dcf01d59)" id="prefix__path79" fill="none" stroke-width="4.5"/></g></g><g id="prefix__axes_3"><g id="prefix__line"><path d="M84.372 406.272l74.492-19.736" clip-path="url(#prefix__pbdcc1faeac)" id="prefix__path80" fill="none" stroke-width="6"/></g><g id="prefix__line"><path d="M79.796 399.54l83.644-110.806" clip-path="url(#prefix__pbdcc1faeac)" id="prefix__path81" fill="none" stroke-width="6"/></g><g id="prefix__line"><path d="M82.942 360.023l77.352 20.494" clip-path="url(#prefix__pbdcc1faeac)" id="prefix__path82" fill="none" stroke-width="1.5"/></g><g id="prefix__line"><path d="M80.9 350.367l81.436-64.727" clip-path="url(#prefix__pbdcc1faeac)" id="prefix__path83" fill="none" stroke-width="1.5"/></g><g id="prefix__line"><path d="M81.286 312.08l80.664 64.115" clip-path="url(#prefix__pbdcc1faeac)" id="prefix__path84" fill="none" stroke-width="3"/></g><g id="prefix__line"><path d="M83.896 301.865l75.445-19.99" clip-path="url(#prefix__pbdcc1faeac)" id="prefix__path85" fill="none" stroke-width="4.5"/></g><g id="prefix__line"><path d="M82.942 255.49l77.352 20.494" clip-path="url(#prefix__pbdcc1faeac)" id="prefix__path86" fill="none" stroke-width="1.5"/></g><g id="prefix__line"><path d="M181.95 383.337h76.608" clip-path="url(#prefix__pbdcc1faeac)" id="prefix__path87" fill="none" stroke-width="1.5"/></g><g id="prefix__line"><path d="M181.96 377.495l76.589-40.583" clip-path="url(#prefix__pbdcc1faeac)" id="prefix__path88" fill="none" stroke-width="6"/></g><g id="prefix__line"><path d="M178.47 375.353l83.57-88.566" clip-path="url(#prefix__pbdcc1faeac)" id="prefix__path89" fill="none" stroke-width="1.5"/></g><g id="prefix__line"><path d="M181.525 284.415l77.459 41.044" clip-path="url(#prefix__pbdcc1faeac)" id="prefix__path90" fill="none" stroke-width="4.5"/></g><g id="prefix__line"><path d="M182.444 278.804h75.621" clip-path="url(#prefix__pbdcc1faeac)" id="prefix__path91" fill="none" stroke-width="3"/></g><g id="prefix__line"><path d="M280.215 380.517l77.352-20.494" clip-path="url(#prefix__pbdcc1faeac)" id="prefix__path92" fill="none" stroke-width="1.5"/></g><g id="prefix__line"><path d="M278.174 376.5l81.434-64.727" clip-path="url(#prefix__pbdcc1faeac)" id="prefix__path93" fill="none" stroke-width="1.5"/></g><g id="prefix__line"><path d="M281.645 334.269l74.492 19.736" clip-path="url(#prefix__pbdcc1faeac)" id="prefix__path94" fill="none" stroke-width="6"/></g><g id="prefix__line"><path d="M280.692 328.124l76.398-20.241" clip-path="url(#prefix__pbdcc1faeac)" id="prefix__path95" fill="none" stroke-width="3"/></g><g id="prefix__line"><path d="M278.559 285.946l80.664 64.115" clip-path="url(#prefix__pbdcc1faeac)" id="prefix__path96" fill="none" stroke-width="3"/></g><g id="prefix__circle"><path d="M72.3 420.425a10.955 10.955 0 100-21.91 10.955 10.955 0 000 21.91z" clip-path="url(#prefix__pbdcc1faeac)" id="prefix__path97" fill="none" stroke-width="6"/></g><g id="prefix__circle"><path d="M72.3 368.158a10.955 10.955 0 100-21.91 10.955 10.955 0 000 21.91z" clip-path="url(#prefix__pbdcc1faeac)" id="prefix__path98" fill="none" stroke-width="1.5"/></g><g id="prefix__circle"><path d="M72.3 315.892a10.955 10.955 0 100-21.91 10.955 10.955 0 000 21.91z" clip-path="url(#prefix__pbdcc1faeac)" id="prefix__path99" fill="none" stroke-width="4.5"/></g><g id="prefix__circle"><path d="M72.3 263.625a10.955 10.955 0 100-21.91 10.955 10.955 0 000 21.91z" clip-path="url(#prefix__pbdcc1faeac)" id="prefix__path100" fill="none" stroke-width="3"/></g><g id="prefix__circle"><path d="M170.936 394.292a10.955 10.955 0 100-21.91 10.955 10.955 0 000 21.91z" clip-path="url(#prefix__pbdcc1faeac)" id="prefix__path101" fill="none" stroke-width="4.5"/></g><g id="prefix__circle"><path d="M170.936 289.758a10.955 10.955 0 100-21.91 10.955 10.955 0 000 21.91z" clip-path="url(#prefix__pbdcc1faeac)" id="prefix__path102" fill="none" stroke-width="7.5"/></g><g id="prefix__circle"><path d="M269.573 394.292a10.955 10.955 0 100-21.91 10.955 10.955 0 000 21.91z" clip-path="url(#prefix__pbdcc1faeac)" id="prefix__path103" fill="none" stroke-width="1.5"/></g><g id="prefix__circle"><path d="M269.573 342.025a10.955 10.955 0 100-21.91 10.955 10.955 0 000 21.91z" clip-path="url(#prefix__pbdcc1faeac)" id="prefix__path104" fill="none" stroke-width="7.5"/></g><g id="prefix__circle"><path d="M269.573 289.758a10.955 10.955 0 100-21.91 10.955 10.955 0 000 21.91z" clip-path="url(#prefix__pbdcc1faeac)" id="prefix__path105" fill="none" stroke-width="3"/></g><g id="prefix__circle"><path d="M368.21 368.158a10.955 10.955 0 10-.001-21.91 10.955 10.955 0 000 21.91z" clip-path="url(#prefix__pbdcc1faeac)" id="prefix__path106" fill="none" stroke-width="7.5"/></g><g id="prefix__circle"><path d="M368.21 315.892a10.955 10.955 0 10-.001-21.91 10.955 10.955 0 000 21.91z" clip-path="url(#prefix__pbdcc1faeac)" id="prefix__path107" fill="none" stroke-width="3"/></g></g><g id="prefix__axes_4"><g id="prefix__line"><path d="M595.226 406.398l75.446-19.989" clip-path="url(#prefix__pfadfe6ee13)" id="prefix__path108" fill="none" stroke-width="4.5"/></g><g id="prefix__line"><path d="M590.831 399.932l84.236-111.59" clip-path="url(#prefix__pfadfe6ee13)" id="prefix__path109" fill="none" stroke-width="4.5"/></g><g id="prefix__line"><path d="M595.226 360.276l75.446 19.989" clip-path="url(#prefix__pfadfe6ee13)" id="prefix__path110" fill="none" stroke-width="4.5"/></g><g id="prefix__line"><path d="M593.002 312.386l79.894 63.503" clip-path="url(#prefix__pfadfe6ee13)" id="prefix__path111" fill="none" stroke-width="4.5"/></g><g id="prefix__line"><path d="M595.226 301.865l75.446-19.99" clip-path="url(#prefix__pfadfe6ee13)" id="prefix__path112" fill="none" stroke-width="4.5"/></g><g id="prefix__line"><path d="M595.226 255.743l75.446 19.989" clip-path="url(#prefix__pfadfe6ee13)" id="prefix__path113" fill="none" stroke-width="4.5"/></g><g id="prefix__line"><path d="M694.761 383.337h73.649" clip-path="url(#prefix__pfadfe6ee13)" id="prefix__path114" fill="none" stroke-width="6"/></g><g id="prefix__line"><path d="M693.291 377.495l76.589-40.583" clip-path="url(#prefix__pfadfe6ee13)" id="prefix__path115" fill="none" stroke-width="6"/></g><g id="prefix__line"><path d="M690.812 374.281l81.547-86.421" clip-path="url(#prefix__pfadfe6ee13)" id="prefix__path116" fill="none" stroke-width="6"/></g><g id="prefix__line"><path d="M693.291 284.645l76.589 40.584" clip-path="url(#prefix__pfadfe6ee13)" id="prefix__path117" fill="none" stroke-width="6"/></g><g id="prefix__line"><path d="M694.761 278.804h73.649" clip-path="url(#prefix__pfadfe6ee13)" id="prefix__path118" fill="none" stroke-width="6"/></g><g id="prefix__line"><path d="M792.5 380.265l75.444-19.99" clip-path="url(#prefix__pfadfe6ee13)" id="prefix__path119" fill="none" stroke-width="4.5"/></g><g id="prefix__line"><path d="M790.275 375.889l79.894-63.503" clip-path="url(#prefix__pfadfe6ee13)" id="prefix__path120" fill="none" stroke-width="4.5"/></g><g id="prefix__line"><path d="M792.5 334.143l75.444 19.989" clip-path="url(#prefix__pfadfe6ee13)" id="prefix__path121" fill="none" stroke-width="4.5"/></g><g id="prefix__line"><path d="M792.5 327.998l75.444-19.989" clip-path="url(#prefix__pfadfe6ee13)" id="prefix__path122" fill="none" stroke-width="4.5"/></g><g id="prefix__line"><path d="M790.275 286.252l79.894 63.503" clip-path="url(#prefix__pfadfe6ee13)" id="prefix__path123" fill="none" stroke-width="4.5"/></g><g id="prefix__circle"><path d="M583.63 420.425a10.955 10.955 0 100-21.91 10.955 10.955 0 000 21.91z" clip-path="url(#prefix__pfadfe6ee13)" id="prefix__path124" fill="none" stroke-width="4.5"/></g><g id="prefix__circle"><path d="M583.63 368.158a10.955 10.955 0 100-21.91 10.955 10.955 0 000 21.91z" clip-path="url(#prefix__pfadfe6ee13)" id="prefix__path125" fill="none" stroke-width="4.5"/></g><g id="prefix__circle"><path d="M583.63 315.892a10.955 10.955 0 100-21.91 10.955 10.955 0 000 21.91z" clip-path="url(#prefix__pfadfe6ee13)" id="prefix__path126" fill="none" stroke-width="4.5"/></g><g id="prefix__circle"><path d="M583.63 263.625a10.955 10.955 0 100-21.91 10.955 10.955 0 000 21.91z" clip-path="url(#prefix__pfadfe6ee13)" id="prefix__path127" fill="none" stroke-width="4.5"/></g><g id="prefix__circle"><path d="M682.267 394.292a10.955 10.955 0 100-21.91 10.955 10.955 0 000 21.91z" clip-path="url(#prefix__pfadfe6ee13)" id="prefix__path128" fill="none" stroke-width="7.5"/></g><g id="prefix__circle"><path d="M682.267 289.758a10.955 10.955 0 100-21.91 10.955 10.955 0 000 21.91z" clip-path="url(#prefix__pfadfe6ee13)" id="prefix__path129" fill="none" stroke-width="7.5"/></g><g id="prefix__circle"><path d="M780.904 394.292a10.955 10.955 0 100-21.91 10.955 10.955 0 000 21.91z" clip-path="url(#prefix__pfadfe6ee13)" id="prefix__path130" fill="none" stroke-width="6"/></g><g id="prefix__circle"><path d="M780.904 342.025a10.955 10.955 0 100-21.91 10.955 10.955 0 000 21.91z" clip-path="url(#prefix__pfadfe6ee13)" id="prefix__path131" fill="none" stroke-width="6"/></g><g id="prefix__circle"><path d="M780.904 289.758a10.955 10.955 0 100-21.91 10.955 10.955 0 000 21.91z" clip-path="url(#prefix__pfadfe6ee13)" id="prefix__path132" fill="none" stroke-width="6"/></g><g id="prefix__circle"><path d="M879.54 368.158a10.955 10.955 0 100-21.91 10.955 10.955 0 000 21.91z" clip-path="url(#prefix__pfadfe6ee13)" id="prefix__path133" fill="none" stroke-width="4.5"/></g><g id="prefix__circle"><path d="M879.54 315.892a10.955 10.955 0 100-21.91 10.955 10.955 0 000 21.91z" clip-path="url(#prefix__pfadfe6ee13)" id="prefix__path134" fill="none" stroke-width="4.5"/></g></g><g id="prefix__axes_5"><g id="prefix__line"><g transform="matrix(.23 0 0 -.23 407.956 141.1)" id="prefix__g145"><defs id="prefix__defs134"><path id="prefix__DejaVuSans-51" d="M2522 4238q-688 0-1093-513-404-512-404-1397 0-881 404-1394 405-512 1093-512 687 0 1089 512 402 513 402 1394 0 885-402 1397-402 513-1089 513zM3406 84l832-909h-763L2784-78q-103-6-158-9-54-4-104-4-984 0-1574 658-589 658-589 1761 0 1106 589 1764 590 658 1574 658 981 0 1568-658 588-658 588-1764 0-812-327-1391-326-578-945-853z" transform="scale(.01563)"/><path id="prefix__DejaVuSans-75" d="M544 1381v2119h575V1403q0-497 193-746 194-248 582-248 465 0 735 297 271 297 271 810v1984h575V0h-575v538q-209-319-486-474-276-155-642-155-603 0-916 375-312 375-312 1097zm1447 2203z" transform="scale(.01563)"/><path id="prefix__DejaVuSans-61" d="M2194 1759q-697 0-966-159t-269-544q0-306 202-486 202-179 548-179 479 0 768 339t289 901v128h-572zm1147 238V0h-575v531q-197-318-491-470T1556-91q-537 0-855 302-317 302-317 808 0 590 395 890 396 300 1180 300h807v57q0 397-261 614t-733 217q-300 0-585-72-284-72-546-216v532q315 122 612 182 297 61 578 61 760 0 1135-394 375-393 375-1193z" transform="scale(.01563)"/><path id="prefix__DejaVuSans-6e" d="M3513 2113V0h-575v2094q0 497-194 743-194 247-581 247-466 0-735-297-269-296-269-809V0H581v3500h578v-544q207 316 486 472 280 156 646 156 603 0 912-373 310-373 310-1098z" transform="scale(.01563)"/><path id="prefix__DejaVuSans-74" d="M1172 4494v-994h1184v-447H1172V1153q0-428 117-550t477-122h590V0h-590q-666 0-919 248-253 249-253 905v1900H172v447h422v994h578z" transform="scale(.01563)"/><path id="prefix__DejaVuSans-69" d="M603 3500h575V0H603v3500zm0 1363h575v-729H603v729z" transform="scale(.01563)"/><path id="prefix__DejaVuSans-7a" d="M353 3500h2731v-525L922 459h2162V0H275v525l2163 2516H353v459z" transform="scale(.01563)"/><path id="prefix__DejaVuSans-6f" d="M1959 3097q-462 0-731-361t-269-989q0-628 267-989 268-361 733-361 460 0 728 362 269 363 269 988 0 622-269 986-268 364-728 364zm0 487q750 0 1178-488 429-487 429-1349 0-859-429-1349Q2709-91 1959-91q-753 0-1180 489-426 490-426 1349 0 862 426 1349 427 488 1180 488z" transform="scale(.01563)"/></defs><use xlink:href="#prefix__DejaVuSans-51" id="prefix__use134"/><use xlink:href="#prefix__DejaVuSans-75" x="78.711" id="prefix__use135"/><use xlink:href="#prefix__DejaVuSans-61" x="142.09" id="prefix__use136"/><use xlink:href="#prefix__DejaVuSans-6e" x="203.369" id="prefix__use137"/><use xlink:href="#prefix__DejaVuSans-74" x="266.748" id="prefix__use138"/><use xlink:href="#prefix__DejaVuSans-69" x="305.957" id="prefix__use139"/><use xlink:href="#prefix__DejaVuSans-7a" x="333.74" id="prefix__use140"/><use xlink:href="#prefix__DejaVuSans-61" x="386.23" id="prefix__use141"/><use xlink:href="#prefix__DejaVuSans-74" x="447.51" id="prefix__use142"/><use xlink:href="#prefix__DejaVuSans-69" x="486.719" id="prefix__use143"/><use xlink:href="#prefix__DejaVuSans-6f" x="514.502" id="prefix__use144"/><use xlink:href="#prefix__DejaVuSans-6e" x="575.684" id="prefix__use145"/></g></g><g id="prefix__line"><g transform="matrix(.23 0 0 -.23 236.873 223.11)" id="prefix__g148"><defs id="prefix__defs145"><path id="prefix__DejaVuSans-48" d="M628 4666h631V2753h2294v1913h631V0h-631v2222H1259V0H628v4666z" transform="scale(.01563)"/><path id="prefix__DejaVuSans-47" d="M3809 666v1253H2778v519h1656V434q-365-259-806-392-440-133-940-133-1094 0-1712 639-617 640-617 1780 0 1144 617 1783 618 639 1712 639 456 0 867-113 411-112 758-331v-672q-350 297-744 447t-828 150q-857 0-1287-478-429-478-429-1425 0-944 429-1422 430-478 1287-478 334 0 596 58 263 58 472 180z" transform="scale(.01563)"/></defs><use xlink:href="#prefix__DejaVuSans-48" id="prefix__use146"/><use xlink:href="#prefix__DejaVuSans-47" x="75.195" id="prefix__use147"/><use xlink:href="#prefix__DejaVuSans-51" x="152.686" id="prefix__use148"/></g></g><g id="prefix__line"><g transform="matrix(.23 0 0 -.23 733.716 223.11)" id="prefix__g155"><defs id="prefix__defs148"><path id="prefix__DejaVuSans-50" d="M1259 4147V2394h794q441 0 681 228 241 228 241 650 0 419-241 647-240 228-681 228h-794zm-631 519h1425q785 0 1186-355 402-355 402-1039 0-691-402-1044-401-353-1186-353h-794V0H628v4666z" transform="scale(.01563)"/><path id="prefix__DejaVuSans-72" d="M2631 2963q-97 56-211 82-114 27-251 27-488 0-749-317t-261-911V0H581v3500h578v-544q182 319 472 473 291 155 707 155 59 0 131-8 72-7 159-23l3-590z" transform="scale(.01563)"/><path id="prefix__DejaVuSans-67" d="M2906 1791q0 625-258 968-257 344-723 344-462 0-720-344-258-343-258-968 0-622 258-966t720-344q466 0 723 344 258 344 258 966zm575-1357q0-893-397-1329-396-436-1215-436-303 0-572 45t-522 139v559q253-137 500-202 247-66 503-66 566 0 847 295t281 892v285q-178-310-456-463T1784 0Q1141 0 747 490 353 981 353 1791q0 812 394 1302 394 491 1037 491 388 0 666-153t456-462v531h575V434z" transform="scale(.01563)"/></defs><use xlink:href="#prefix__DejaVuSans-50" id="prefix__use149"/><use xlink:href="#prefix__DejaVuSans-72" x="58.553" id="prefix__use150"/><use xlink:href="#prefix__DejaVuSans-75" x="99.666" id="prefix__use151"/><use xlink:href="#prefix__DejaVuSans-6e" x="163.045" id="prefix__use152"/><use xlink:href="#prefix__DejaVuSans-69" x="226.424" id="prefix__use153"/><use xlink:href="#prefix__DejaVuSans-6e" x="254.207" id="prefix__use154"/><use xlink:href="#prefix__DejaVuSans-67" x="317.586" id="prefix__use155"/></g></g><g id="prefix__line"><g transform="scale(.23 -.23) rotate(-25 -1261.947 -4163.518)" id="prefix__g167"><use xlink:href="#prefix__DejaVuSans-51" id="prefix__use156"/><use xlink:href="#prefix__DejaVuSans-75" x="78.711" id="prefix__use157"/><use xlink:href="#prefix__DejaVuSans-61" x="142.09" id="prefix__use158"/><use xlink:href="#prefix__DejaVuSans-6e" x="203.369" id="prefix__use159"/><use xlink:href="#prefix__DejaVuSans-74" x="266.748" id="prefix__use160"/><use xlink:href="#prefix__DejaVuSans-69" x="305.957" id="prefix__use161"/><use xlink:href="#prefix__DejaVuSans-7a" x="333.74" id="prefix__use162"/><use xlink:href="#prefix__DejaVuSans-61" x="386.23" id="prefix__use163"/><use xlink:href="#prefix__DejaVuSans-74" x="447.51" id="prefix__use164"/><use xlink:href="#prefix__DejaVuSans-69" x="486.719" id="prefix__use165"/><use xlink:href="#prefix__DejaVuSans-6f" x="514.502" id="prefix__use166"/><use xlink:href="#prefix__DejaVuSans-6e" x="575.684" id="prefix__use167"/></g><g transform="scale(.23 -.23) rotate(-25 -1585.708 -4428.74)" id="prefix__g176"><defs id="prefix__defs167"><path id="prefix__DejaVuSans-2b" d="M2944 4013V2272h1740v-531H2944V0h-525v1741H678v531h1741v1741h525z" transform="scale(.01563)"/></defs><use xlink:href="#prefix__DejaVuSans-2b" id="prefix__use168"/><use xlink:href="#prefix__DejaVuSans-20" x="83.789" id="prefix__use169"/><use xlink:href="#prefix__DejaVuSans-50" x="115.576" id="prefix__use170"/><use xlink:href="#prefix__DejaVuSans-72" x="174.129" id="prefix__use171"/><use xlink:href="#prefix__DejaVuSans-75" x="215.242" id="prefix__use172"/><use xlink:href="#prefix__DejaVuSans-6e" x="278.621" id="prefix__use173"/><use xlink:href="#prefix__DejaVuSans-69" x="342" id="prefix__use174"/><use xlink:href="#prefix__DejaVuSans-6e" x="369.783" id="prefix__use175"/><use xlink:href="#prefix__DejaVuSans-67" x="433.162" id="prefix__use176"/></g></g><g id="prefix__arrow"><path d="M541.54 100.34l-23.435 11.642v-6.986H414.986v-9.314h103.119v-6.985z" clip-path="url(#prefix__p801c608b46)" id="prefix__path176" stroke-width="2" stroke-linejoin="miter"/></g><g id="prefix__arrow"><path d="M218.124 254.019l-11.718-23.285h7.03v-55.883h9.375v55.883h7.031z" clip-path="url(#prefix__p801c608b46)" id="prefix__path177" stroke-width="2" stroke-linejoin="miter"/></g><g id="prefix__arrow"><path d="M714.967 254.019l-11.718-23.285h7.031v-55.883h9.374v55.883h7.031z" clip-path="url(#prefix__p801c608b46)" id="prefix__path178" stroke-width="2" stroke-linejoin="miter"/></g><g id="prefix__arrow"><path d="M543.754 250.461h-26.202l3.144-6.248L380.08 174.36l4.192-8.33 140.616 69.854 3.144-6.248z" clip-path="url(#prefix__p801c608b46)" id="prefix__path179" stroke-width="2" stroke-linejoin="miter"/></g></g></g><defs id="prefix__defs183"><clipPath id="prefix__p42871ecb75"><path id="prefix__rect179" d="M7.2 7.2h426.109v190.512H7.2z"/></clipPath><clipPath id="prefix__p56dcf01d59"><path id="prefix__rect180" d="M518.531 7.2H944.64v190.512H518.531z"/></clipPath><clipPath id="prefix__pbdcc1faeac"><path id="prefix__rect181" d="M7.2 235.814h426.109v190.512H7.2z"/></clipPath><clipPath id="prefix__pfadfe6ee13"><path id="prefix__rect182" d="M518.531 235.814H944.64v190.512H518.531z"/></clipPath><clipPath id="prefix__p801c608b46"><path id="prefix__rect183" d="M7.2 7.2h937.44v419.126H7.2z"/></clipPath></defs></svg>
